SplineFontDB: 3.0
FontName: Ngwa
FullName: Ngwa
FamilyName: Ngwa
Weight: Book
Copyright: Digitized data copyright (c) 2007, Google Corporation.
Version: 1.00
ItalicAngle: 0
UnderlinePosition: -50
UnderlineWidth: 50
Ascent: 750
Descent: 250
sfntRevision: 0x00010000
LayerCount: 2
Layer: 0 1 "Back"  1
Layer: 1 1 "Fore"  0
XUID: [1021 10 1308783564 4002742]
FSType: 8
OS2Version: 3
OS2_WeightWidthSlopeOnly: 0
OS2_UseTypoMetrics: 1
CreationTime: 1165263488
ModificationTime: 1396204454
PfmFamily: 17
TTFWeight: 400
TTFWidth: 5
LineGap: 0
VLineGap: 0
Panose: 2 11 6 6 3 8 4 2 2 4
OS2TypoAscent: 765
OS2TypoAOffset: 0
OS2TypoDescent: -240
OS2TypoDOffset: 0
OS2TypoLinegap: 64
OS2WinAscent: 928
OS2WinAOffset: 0
OS2WinDescent: 236
OS2WinDOffset: 0
HheadAscent: 928
HheadAOffset: 0
HheadDescent: -236
HheadDOffset: 0
OS2SubXSize: 700
OS2SubYSize: 650
OS2SubXOff: 0
OS2SubYOff: 140
OS2SupXSize: 700
OS2SupYSize: 650
OS2SupXOff: 0
OS2SupYOff: 477
OS2StrikeYSize: 50
OS2StrikeYPos: 243
OS2Vendor: '1ASC'
OS2CodePages: 2000019f.00000000
OS2UnicodeRanges: 00000000.00000000.00000000.00000000
Lookup: 258 8 0 "'kern' Horizontal Kerning in Latin lookup 0"  {"'kern' Horizontal Kerning in Latin lookup 0 subtable"  } ['kern' ('latn' <'dflt' > ) ]
MarkAttachClasses: 1
DEI: 91125
TtTable: prep
NPUSHB
 16
 9
 248
 3
 255
 31
 143
 247
 159
 247
 2
 127
 243
 1
 96
 242
 1
PUSHW_1
 -24
NPUSHB
 43
 235
 12
 16
 70
 223
 51
 221
 85
 222
 255
 220
 85
 48
 221
 1
 221
 1
 3
 85
 220
 3
 250
 31
 48
 194
 1
 111
 192
 239
 192
 2
 252
 182
 24
 31
 48
 183
 1
 96
 183
 128
 183
 2
PUSHW_1
 -64
NPUSHB
 56
 183
 15
 19
 70
 231
 177
 1
 31
 175
 47
 175
 63
 175
 3
 79
 175
 95
 175
 111
 175
 3
 64
 175
 15
 19
 70
 172
 81
 24
 31
 31
 156
 95
 156
 2
 224
 155
 1
 3
 43
 154
 1
 31
 154
 1
 144
 154
 160
 154
 2
 115
 154
 131
 154
 2
 5
PUSHW_1
 -22
NPUSHB
 25
 154
 9
 11
 70
 175
 151
 191
 151
 2
 3
 43
 150
 1
 31
 150
 1
 159
 150
 175
 150
 2
 124
 150
 1
 5
PUSHW_1
 -22
NPUSHB
 133
 150
 9
 11
 70

StartChar: uniA4D0
Encoding: 42192 42192 0
Width: 588
Flags: W
LayerCount: 2
Fore
SplineSet
90 656 m 1,0,-1
 285 656 l 2,1,2
 335 656 335 656 376.5 647 c 128,-1,3
 418 638 418 638 447.5 619 c 128,-1,4
 477 600 477 600 493.5 569.5 c 128,-1,5
 510 539 510 539 510 496 c 0,6,7
 510 447 510 447 482 407.5 c 128,-1,8
 454 368 454 368 396 353 c 1,9,-1
 396 349 l 1,10,11
 468 338 468 338 508 299 c 128,-1,12
 548 260 548 260 548 192 c 0,13,14
 548 144 548 144 530 108 c 128,-1,15
 512 72 512 72 479 48 c 128,-1,16
 446 24 446 24 400 12 c 128,-1,17
 354 0 354 0 299 0 c 2,18,-1
 90 0 l 1,19,-1
 90 656 l 1,0,-1
270 376 m 2,20,21
 355 376 355 376 391.5 405 c 128,-1,22
 428 434 428 434 428 489 c 0,23,24
 428 543 428 543 389.5 566.5 c 128,-1,25
 351 590 351 590 274 590 c 2,26,-1
 173 590 l 1,27,-1
 173 376 l 1,28,-1
 270 376 l 2,20,21
287 66 m 2,29,30
 372 66 372 66 419 97.5 c 128,-1,31
 466 129 466 129 466 196 c 0,32,33
 466 257 466 257 420 285.5 c 128,-1,34
 374 314 374 314 287 314 c 2,35,-1
 173 314 l 1,36,-1
 173 66 l 1,37,-1
 287 66 l 2,29,30
EndSplineSet
EndChar

StartChar: uniA4D1
Encoding: 42193 42193 1
Width: 576
Flags: W
LayerCount: 2
Fore
SplineSet
90 656 m 1,0,-1
 291 656 l 2,1,2
 345 656 345 656 390 646 c 128,-1,3
 435 636 435 636 466.5 613.5 c 128,-1,4
 498 591 498 591 515.5 554 c 128,-1,5
 533 517 533 517 533 463 c 0,6,7
 533 411 533 411 515.5 373 c 128,-1,8
 498 335 498 335 466 310 c 128,-1,9
 434 285 434 285 389.5 272.5 c 128,-1,10
 345 260 345 260 291 260 c 2,11,-1
 173 260 l 1,12,-1
 173 0 l 1,13,-1
 90 0 l 1,14,-1
 90 656 l 1,0,-1
281 328 m 2,15,16
 367 328 367 328 408.5 360.5 c 128,-1,17
 450 393 450 393 450 463 c 0,18,19
 450 534 450 534 408 561.5 c 128,-1,20
 366 589 366 589 281 589 c 2,21,-1
 173 589 l 1,22,-1
 173 328 l 1,23,-1
 281 328 l 2,15,16
EndSplineSet
EndChar

StartChar: uniA4D2
Encoding: 42194 42194 2
Width: 576
Flags: W
LayerCount: 2
Fore
SplineSet
486 0 m 1,0,-1
 285 0 l 2,1,2
 231 0 231 0 186 10 c 128,-1,3
 141 20 141 20 109.5 42.5 c 128,-1,4
 78 65 78 65 60.5 102 c 128,-1,5
 43 139 43 139 43 193 c 0,6,7
 43 245 43 245 60.5 283 c 128,-1,8
 78 321 78 321 110 346 c 128,-1,9
 142 371 142 371 186.5 383.5 c 128,-1,10
 231 396 231 396 285 396 c 2,11,-1
 403 396 l 1,12,-1
 403 656 l 1,13,-1
 486 656 l 1,14,-1
 486 0 l 1,0,-1
295 328 m 2,15,16
 209 328 209 328 167.5 295.5 c 128,-1,17
 126 263 126 263 126 193 c 0,18,19
 126 122 126 122 168 94.5 c 128,-1,20
 210 67 210 67 295 67 c 2,21,-1
 403 67 l 1,22,-1
 403 328 l 1,23,-1
 295 328 l 2,15,16
EndSplineSet
EndChar

StartChar: uniA4D3
Encoding: 42195 42195 3
Width: 615
Flags: W
LayerCount: 2
Fore
SplineSet
90 656 m 1,0,-1
 254 656 l 2,1,2
 406 656 406 656 485 572 c 128,-1,3
 564 488 564 488 564 331 c 0,4,5
 564 253 564 253 544 191.5 c 128,-1,6
 524 130 524 130 485 87.5 c 128,-1,7
 446 45 446 45 389 22.5 c 128,-1,8
 332 0 332 0 258 0 c 2,9,-1
 90 0 l 1,10,-1
 90 656 l 1,0,-1
248 68 m 2,11,12
 363 68 363 68 420.5 137 c 128,-1,13
 478 206 478 206 478 331 c 128,-1,14
 478 456 478 456 420.5 522 c 128,-1,15
 363 588 363 588 248 588 c 2,16,-1
 173 588 l 1,17,-1
 173 68 l 1,18,-1
 248 68 l 2,11,12
EndSplineSet
EndChar

StartChar: uniA4D4
Encoding: 42196 42196 4
Width: 536
Flags: W
LayerCount: 2
Fore
SplineSet
226 586 m 1,0,-1
 28 586 l 1,1,-1
 28 656 l 1,2,-1
 508 656 l 1,3,-1
 508 586 l 1,4,-1
 310 586 l 1,5,-1
 310 0 l 1,6,-1
 226 0 l 1,7,-1
 226 586 l 1,0,-1
EndSplineSet
EndChar

StartChar: uniA4D5
Encoding: 42197 42197 5
Width: 536
Flags: W
LayerCount: 2
Fore
SplineSet
310 70 m 1,0,-1
 508 70 l 1,1,-1
 508 0 l 1,2,-1
 28 0 l 1,3,-1
 28 70 l 1,4,-1
 226 70 l 1,5,-1
 226 656 l 1,6,-1
 310 656 l 1,7,-1
 310 70 l 1,0,-1
EndSplineSet
EndChar

StartChar: uniA4D6
Encoding: 42198 42198 6
Width: 617
Flags: W
LayerCount: 2
Fore
SplineSet
52 328 m 0,0,1
 52 407 52 407 74.5 470 c 128,-1,2
 97 533 97 533 137.5 577 c 128,-1,3
 178 621 178 621 233 644.5 c 128,-1,4
 288 668 288 668 354 668 c 0,5,6
 422 668 422 668 467.5 642.5 c 128,-1,7
 513 617 513 617 542 587 c 1,8,-1
 495 534 l 1,9,10
 470 560 470 560 437.5 577.5 c 128,-1,11
 405 595 405 595 355 595 c 128,-1,12
 305 595 305 595 265 576.5 c 128,-1,13
 225 558 225 558 197 523.5 c 128,-1,14
 169 489 169 489 153.5 440 c 128,-1,15
 138 391 138 391 138 330 c 0,16,17
 138 268 138 268 152.5 218.5 c 128,-1,18
 167 169 167 169 194.5 134 c 128,-1,19
 222 99 222 99 262.5 80 c 128,-1,20
 303 61 303 61 356 61 c 0,21,22
 391 61 391 61 422.5 71.5 c 128,-1,23
 454 82 454 82 474 100 c 1,24,-1
 474 271 l 1,25,-1
 335 271 l 1,26,-1
 335 340 l 1,27,-1
 550 340 l 1,28,-1
 550 64 l 1,29,30
 518 31 518 31 465.5 9.5 c 128,-1,31
 413 -12 413 -12 347 -12 c 0,32,33
 282 -12 282 -12 228 11 c 128,-1,34
 174 34 174 34 135 77.5 c 128,-1,35
 96 121 96 121 74 184.5 c 128,-1,36
 52 248 52 248 52 328 c 0,0,1
EndSplineSet
EndChar

StartChar: uniA4D7
Encoding: 42199 42199 7
Width: 579
Flags: W
LayerCount: 2
Fore
SplineSet
90 656 m 1,0,-1
 173 656 l 1,1,-1
 173 327 l 1,2,-1
 176 327 l 1,3,-1
 449 656 l 1,4,-1
 543 656 l 1,5,-1
 338 406 l 1,6,-1
 575 0 l 1,7,-1
 482 0 l 1,8,-1
 286 341 l 1,9,-1
 173 208 l 1,10,-1
 173 0 l 1,11,-1
 90 0 l 1,12,-1
 90 656 l 1,0,-1
EndSplineSet
EndChar

StartChar: uniA4D8
Encoding: 42200 42200 8
Width: 579
Flags: W
LayerCount: 2
Fore
SplineSet
489 0 m 1,0,-1
 406 0 l 1,1,-1
 406 329 l 1,2,-1
 403 329 l 1,3,-1
 130 0 l 1,4,-1
 36 0 l 1,5,-1
 241 250 l 1,6,-1
 4 656 l 1,7,-1
 97 656 l 1,8,-1
 293 315 l 1,9,-1
 406 448 l 1,10,-1
 406 656 l 1,11,-1
 489 656 l 1,12,-1
 489 0 l 1,0,-1
EndSplineSet
EndChar

StartChar: uniA4D9
Encoding: 42201 42201 9
Width: 480
Flags: W
LayerCount: 2
Fore
SplineSet
91 135 m 1,0,1
 113 96 113 96 141 78.5 c 128,-1,2
 169 61 169 61 204 61 c 0,3,4
 257 61 257 61 283 93.5 c 128,-1,5
 309 126 309 126 309 201 c 2,6,-1
 309 656 l 1,7,-1
 393 656 l 1,8,-1
 393 193 l 2,9,10
 393 151 393 151 382.5 113.5 c 128,-1,11
 372 76 372 76 350.5 48 c 128,-1,12
 329 20 329 20 294.5 4 c 128,-1,13
 260 -12 260 -12 212 -12 c 0,14,15
 89 -12 89 -12 31 93 c 1,16,-1
 91 135 l 1,0,1
EndSplineSet
EndChar

StartChar: uniA4DA
Encoding: 42202 42202 10
Width: 571
Flags: W
LayerCount: 2
Fore
SplineSet
52 328 m 0,0,1
 52 407 52 407 74 470 c 128,-1,2
 96 533 96 533 135 577 c 128,-1,3
 174 621 174 621 227.5 644.5 c 128,-1,4
 281 668 281 668 344 668 c 0,5,6
 404 668 404 668 449 643.5 c 128,-1,7
 494 619 494 619 523 587 c 1,8,-1
 476 534 l 1,9,10
 450 562 450 562 418.5 578.5 c 128,-1,11
 387 595 387 595 345 595 c 0,12,13
 298 595 298 595 260 576.5 c 128,-1,14
 222 558 222 558 195 523.5 c 128,-1,15
 168 489 168 489 153 440 c 128,-1,16
 138 391 138 391 138 330 c 0,17,18
 138 268 138 268 152.5 218.5 c 128,-1,19
 167 169 167 169 193 134 c 128,-1,20
 219 99 219 99 256.5 80 c 128,-1,21
 294 61 294 61 341 61 c 0,22,23
 389 61 389 61 424.5 80 c 128,-1,24
 460 99 460 99 492 134 c 1,25,-1
 539 83 l 1,26,27
 500 38 500 38 451 13 c 128,-1,28
 402 -12 402 -12 339 -12 c 0,29,30
 277 -12 277 -12 224.5 11 c 128,-1,31
 172 34 172 34 133.5 77.5 c 128,-1,32
 95 121 95 121 73.5 184.5 c 128,-1,33
 52 248 52 248 52 328 c 0,0,1
EndSplineSet
EndChar

StartChar: uniA4DB
Encoding: 42203 42203 11
Width: 571
Flags: W
LayerCount: 2
Fore
SplineSet
519 328 m 0,0,1
 519 249 519 249 497 186 c 128,-1,2
 475 123 475 123 436 79 c 128,-1,3
 397 35 397 35 343.5 11.5 c 128,-1,4
 290 -12 290 -12 227 -12 c 0,5,6
 167 -12 167 -12 122 12.5 c 128,-1,7
 77 37 77 37 48 69 c 1,8,-1
 95 122 l 1,9,10
 121 94 121 94 152.5 77.5 c 128,-1,11
 184 61 184 61 226 61 c 0,12,13
 273 61 273 61 311 79.5 c 128,-1,14
 349 98 349 98 376 132.5 c 128,-1,15
 403 167 403 167 418 216 c 128,-1,16
 433 265 433 265 433 326 c 0,17,18
 433 388 433 388 418.5 437.5 c 128,-1,19
 404 487 404 487 378 522 c 128,-1,20
 352 557 352 557 314.5 576 c 128,-1,21
 277 595 277 595 230 595 c 0,22,23
 182 595 182 595 146.5 576 c 128,-1,24
 111 557 111 557 79 522 c 1,25,-1
 32 573 l 1,26,27
 71 618 71 618 120 643 c 128,-1,28
 169 668 169 668 232 668 c 0,29,30
 294 668 294 668 346.5 645 c 128,-1,31
 399 622 399 622 437.5 578.5 c 128,-1,32
 476 535 476 535 497.5 471.5 c 128,-1,33
 519 408 519 408 519 328 c 0,0,1
EndSplineSet
EndChar

StartChar: uniA4DC
Encoding: 42204 42204 12
Width: 539
Flags: W
LayerCount: 2
Fore
SplineSet
45 50 m 1,0,-1
 390 586 l 1,1,-1
 76 586 l 1,2,-1
 76 656 l 1,3,-1
 494 656 l 1,4,-1
 494 607 l 1,5,-1
 148 71 l 1,6,-1
 497 71 l 1,7,-1
 497 0 l 1,8,-1
 45 0 l 1,9,-1
 45 50 l 1,0,-1
EndSplineSet
EndChar

StartChar: uniA4DD
Encoding: 42205 42205 13
Width: 494
Flags: W
LayerCount: 2
Fore
SplineSet
90 656 m 1,0,-1
 468 656 l 1,1,-1
 468 586 l 1,2,-1
 173 586 l 1,3,-1
 173 364 l 1,4,-1
 423 364 l 1,5,-1
 423 294 l 1,6,-1
 173 294 l 1,7,-1
 173 0 l 1,8,-1
 90 0 l 1,9,-1
 90 656 l 1,0,-1
EndSplineSet
EndChar

StartChar: uniA4DE
Encoding: 42206 42206 14
Width: 494
Flags: W
LayerCount: 2
Fore
SplineSet
404 0 m 1,0,-1
 26 0 l 1,1,-1
 26 70 l 1,2,-1
 321 70 l 1,3,-1
 321 292 l 1,4,-1
 71 292 l 1,5,-1
 71 362 l 1,6,-1
 321 362 l 1,7,-1
 321 656 l 1,8,-1
 404 656 l 1,9,-1
 404 0 l 1,0,-1
EndSplineSet
EndChar

StartChar: uniA4DF
Encoding: 42207 42207 15
Width: 727
Flags: W
LayerCount: 2
Fore
SplineSet
90 656 m 1,0,-1
 188 656 l 1,1,-1
 315 304 l 1,2,-1
 363 170 l 1,3,-1
 367 170 l 1,4,-1
 413 304 l 1,5,-1
 539 656 l 1,6,-1
 637 656 l 1,7,-1
 637 0 l 1,8,-1
 558 0 l 1,9,-1
 558 361 l 2,10,11
 558 405 558 405 561.5 458 c 128,-1,12
 565 511 565 511 569 555 c 1,13,-1
 565 555 l 1,14,-1
 512 409 l 1,15,-1
 386 66 l 1,16,-1
 339 66 l 1,17,-1
 212 409 l 1,18,-1
 160 555 l 1,19,-1
 156 555 l 1,20,21
 159 511 159 511 163 458 c 128,-1,22
 167 405 167 405 167 361 c 2,23,-1
 167 0 l 1,24,-1
 90 0 l 1,25,-1
 90 656 l 1,0,-1
EndSplineSet
EndChar

StartChar: uniA4E0
Encoding: 42208 42208 16
Width: 647
Flags: W
LayerCount: 2
Fore
SplineSet
90 656 m 1,0,-1
 176 656 l 1,1,-1
 413 244 l 1,2,-1
 484 108 l 1,3,-1
 488 108 l 1,4,5
 485 158 485 158 481.5 211.5 c 128,-1,6
 478 265 478 265 478 317 c 2,7,-1
 478 656 l 1,8,-1
 557 656 l 1,9,-1
 557 0 l 1,10,-1
 471 0 l 1,11,-1
 233 413 l 1,12,-1
 162 548 l 1,13,-1
 158 548 l 1,14,15
 162 498 162 498 165.5 446.5 c 128,-1,16
 169 395 169 395 169 343 c 2,17,-1
 169 0 l 1,18,-1
 90 0 l 1,19,-1
 90 656 l 1,0,-1
EndSplineSet
EndChar

StartChar: uniA4E1
Encoding: 42209 42209 17
Width: 486
Flags: W
LayerCount: 2
Fore
SplineSet
90 656 m 1,0,-1
 173 656 l 1,1,-1
 173 71 l 1,2,-1
 460 71 l 1,3,-1
 460 0 l 1,4,-1
 90 0 l 1,5,-1
 90 656 l 1,0,-1
EndSplineSet
EndChar

StartChar: uniA4E2
Encoding: 42210 42210 18
Width: 534
Flags: W
LayerCount: 2
Fore
SplineSet
92 143 m 1,0,1
 127 106 127 106 174.5 83.5 c 128,-1,2
 222 61 222 61 273 61 c 0,3,4
 338 61 338 61 374 90.5 c 128,-1,5
 410 120 410 120 410 168 c 0,6,7
 410 193 410 193 401.5 210.5 c 128,-1,8
 393 228 393 228 378.5 240.5 c 128,-1,9
 364 253 364 253 344 263 c 128,-1,10
 324 273 324 273 301 284 c 2,11,-1
 207 325 l 2,12,13
 184 335 184 335 160 349 c 128,-1,14
 136 363 136 363 117 383 c 128,-1,15
 98 403 98 403 86 430.5 c 128,-1,16
 74 458 74 458 74 494 c 0,17,18
 74 531 74 531 89.5 563 c 128,-1,19
 105 595 105 595 132.5 618.5 c 128,-1,20
 160 642 160 642 197.5 655 c 128,-1,21
 235 668 235 668 280 668 c 0,22,23
 339 668 339 668 389 645.5 c 128,-1,24
 439 623 439 623 474 587 c 1,25,-1
 429 533 l 1,26,27
 399 562 399 562 362.5 578.5 c 128,-1,28
 326 595 326 595 280 595 c 0,29,30
 225 595 225 595 191.5 569.5 c 128,-1,31
 158 544 158 544 158 499 c 0,32,33
 158 475 158 475 167.5 458.5 c 128,-1,34
 177 442 177 442 193 429.5 c 128,-1,35
 209 417 209 417 228 407.5 c 128,-1,36
 247 398 247 398 267 390 c 2,37,-1
 360 350 l 2,38,39
 388 338 388 338 413 322.5 c 128,-1,40
 438 307 438 307 456 286.5 c 128,-1,41
 474 266 474 266 484.5 238.5 c 128,-1,42
 495 211 495 211 495 175 c 0,43,44
 495 136 495 136 479.5 102 c 128,-1,45
 464 68 464 68 435 42.5 c 128,-1,46
 406 17 406 17 365 2.5 c 128,-1,47
 324 -12 324 -12 272 -12 c 0,48,49
 203 -12 203 -12 144 14 c 128,-1,50
 85 40 85 40 42 85 c 1,51,-1
 92 143 l 1,0,1
EndSplineSet
EndChar

StartChar: uniA4E3
Encoding: 42211 42211 19
Width: 581
Flags: W
LayerCount: 2
Fore
SplineSet
173 345 m 1,0,-1
 283 345 l 2,1,2
 360 345 360 345 401 376.5 c 128,-1,3
 442 408 442 408 442 472 c 0,4,5
 442 537 442 537 401 563 c 128,-1,6
 360 589 360 589 283 589 c 2,7,-1
 173 589 l 1,8,-1
 173 345 l 1,0,-1
450 0 m 1,9,-1
 292 277 l 1,10,-1
 173 277 l 1,11,-1
 173 0 l 1,12,-1
 90 0 l 1,13,-1
 90 656 l 1,14,-1
 295 656 l 2,15,16
 345 656 345 656 387.5 646.5 c 128,-1,17
 430 637 430 637 460.5 615 c 128,-1,18
 491 593 491 593 508 558 c 128,-1,19
 525 523 525 523 525 472 c 0,20,21
 525 395 525 395 485 349 c 128,-1,22
 445 303 445 303 378 286 c 1,23,-1
 544 0 l 1,24,-1
 450 0 l 1,9,-1
EndSplineSet
EndChar

StartChar: uniA4E4
Encoding: 42212 42212 20
Width: 581
Flags: W
LayerCount: 2
Fore
SplineSet
408 311 m 1,0,-1
 298 311 l 2,1,2
 221 311 221 311 180 279.5 c 128,-1,3
 139 248 139 248 139 184 c 0,4,5
 139 119 139 119 180 93 c 128,-1,6
 221 67 221 67 298 67 c 2,7,-1
 408 67 l 1,8,-1
 408 311 l 1,0,-1
131 656 m 1,9,-1
 289 379 l 1,10,-1
 408 379 l 1,11,-1
 408 656 l 1,12,-1
 491 656 l 1,13,-1
 491 0 l 1,14,-1
 286 0 l 2,15,16
 236 0 236 0 193.5 9.5 c 128,-1,17
 151 19 151 19 120.5 41 c 128,-1,18
 90 63 90 63 73 98 c 128,-1,19
 56 133 56 133 56 184 c 0,20,21
 56 261 56 261 96 307 c 128,-1,22
 136 353 136 353 203 370 c 1,23,-1
 37 656 l 1,24,-1
 131 656 l 1,9,-1
EndSplineSet
EndChar

StartChar: uniA4E5
Encoding: 42213 42213 21
Width: 515
Flags: W
LayerCount: 2
Fore
SplineSet
515 0 m 1,0,-1
 426 0 l 1,1,-1
 321 354 l 2,2,3
 303 413 303 413 289.5 463 c 128,-1,4
 276 513 276 513 257 571 c 1,5,-1
 253 571 l 1,6,7
 235 513 235 513 221 463 c 128,-1,8
 207 413 207 413 190 354 c 2,9,-1
 85 0 l 1,10,-1
 0 0 l 1,11,-1
 208 656 l 1,12,-1
 305 656 l 1,13,-1
 515 0 l 1,0,-1
EndSplineSet
EndChar

StartChar: uniA4E6
Encoding: 42214 42214 22
Width: 515
Flags: W
LayerCount: 2
Fore
SplineSet
0 656 m 1,0,-1
 89 656 l 1,1,-1
 194 302 l 2,2,3
 212 243 212 243 225.5 193 c 128,-1,4
 239 143 239 143 258 85 c 1,5,-1
 262 85 l 1,6,7
 280 143 280 143 294 193 c 128,-1,8
 308 243 308 243 325 302 c 2,9,-1
 430 656 l 1,10,-1
 515 656 l 1,11,-1
 307 0 l 1,12,-1
 210 0 l 1,13,-1
 0 656 l 1,0,-1
EndSplineSet
EndChar

StartChar: uniA4E7
Encoding: 42215 42215 23
Width: 652
Flags: W
LayerCount: 2
Fore
SplineSet
90 656 m 1,0,-1
 173 656 l 1,1,-1
 173 381 l 1,2,-1
 478 381 l 1,3,-1
 478 656 l 1,4,-1
 562 656 l 1,5,-1
 562 0 l 1,6,-1
 478 0 l 1,7,-1
 478 309 l 1,8,-1
 173 309 l 1,9,-1
 173 0 l 1,10,-1
 90 0 l 1,11,-1
 90 656 l 1,0,-1
EndSplineSet
EndChar

StartChar: uniA4E8
Encoding: 42216 42216 24
Width: 617
Flags: W
LayerCount: 2
Fore
SplineSet
565 328 m 0,0,1
 565 249 565 249 542.5 186 c 128,-1,2
 520 123 520 123 479.5 79 c 128,-1,3
 439 35 439 35 384 11.5 c 128,-1,4
 329 -12 329 -12 263 -12 c 0,5,6
 195 -12 195 -12 149.5 13.5 c 128,-1,7
 104 39 104 39 75 69 c 1,8,-1
 122 122 l 1,9,10
 147 96 147 96 179.5 78.5 c 128,-1,11
 212 61 212 61 262 61 c 128,-1,12
 312 61 312 61 352 79.5 c 128,-1,13
 392 98 392 98 420 132.5 c 128,-1,14
 448 167 448 167 463.5 216 c 128,-1,15
 479 265 479 265 479 326 c 0,16,17
 479 388 479 388 464.5 437.5 c 128,-1,18
 450 487 450 487 422.5 522 c 128,-1,19
 395 557 395 557 354.5 576 c 128,-1,20
 314 595 314 595 261 595 c 0,21,22
 226 595 226 595 194.5 584.5 c 128,-1,23
 163 574 163 574 143 556 c 1,24,-1
 143 385 l 1,25,-1
 282 385 l 1,26,-1
 282 316 l 1,27,-1
 67 316 l 1,28,-1
 67 592 l 1,29,30
 99 625 99 625 151.5 646.5 c 128,-1,31
 204 668 204 668 270 668 c 0,32,33
 335 668 335 668 389 645 c 128,-1,34
 443 622 443 622 482 578.5 c 128,-1,35
 521 535 521 535 543 471.5 c 128,-1,36
 565 408 565 408 565 328 c 0,0,1
EndSplineSet
EndChar

StartChar: uniA4E9
Encoding: 42217 42217 25
Width: 480
Flags: W
LayerCount: 2
Fore
SplineSet
389 509 m 1,0,1
 367 548 367 548 339 565.5 c 128,-1,2
 311 583 311 583 276 583 c 0,3,4
 223 583 223 583 197 550.5 c 128,-1,5
 171 518 171 518 171 443 c 2,6,-1
 171 -12 l 1,7,-1
 87 -12 l 1,8,-1
 87 451 l 2,9,10
 87 493 87 493 97.5 530.5 c 128,-1,11
 108 568 108 568 129.5 596 c 128,-1,12
 151 624 151 624 185.5 640 c 128,-1,13
 220 656 220 656 268 656 c 0,14,15
 391 656 391 656 449 551 c 1,16,-1
 389 509 l 1,0,1
EndSplineSet
EndChar

StartChar: uniA4EA
Encoding: 42218 42218 26
Width: 786
Flags: W
LayerCount: 2
Fore
SplineSet
23 656 m 1,0,-1
 109 656 l 1,1,-1
 178 299 l 1,2,3
 187 245 187 245 197 193 c 128,-1,4
 207 141 207 141 216 87 c 1,5,-1
 220 87 l 1,6,7
 231 141 231 141 243 193.5 c 128,-1,8
 255 246 255 246 266 299 c 1,9,-1
 357 656 l 1,10,-1
 433 656 l 1,11,-1
 524 299 l 1,12,13
 536 247 536 247 548 194 c 128,-1,14
 560 141 560 141 572 87 c 1,15,-1
 576 87 l 1,16,17
 585 141 585 141 594 193.5 c 128,-1,18
 603 246 603 246 613 299 c 2,19,-1
 682 656 l 1,20,-1
 762 656 l 1,21,-1
 626 0 l 1,22,-1
 526 0 l 1,23,-1
 427 395 l 2,24,25
 418 433 418 433 410.5 469.5 c 128,-1,26
 403 506 403 506 395 544 c 1,27,-1
 391 544 l 1,28,29
 383 506 383 506 374.5 469.5 c 128,-1,30
 366 433 366 433 358 395 c 1,31,-1
 261 0 l 1,32,-1
 162 0 l 1,33,-1
 23 656 l 1,0,-1
EndSplineSet
EndChar

StartChar: uniA4EB
Encoding: 42219 42219 27
Width: 513
Flags: W
LayerCount: 2
Fore
SplineSet
206 339 m 1,0,-1
 28 656 l 1,1,-1
 120 656 l 1,2,-1
 209 488 l 2,3,4
 222 465 222 465 233.5 443.5 c 128,-1,5
 245 422 245 422 260 393 c 1,6,-1
 264 393 l 1,7,8
 278 422 278 422 288.5 443.5 c 128,-1,9
 299 465 299 465 311 488 c 2,10,-1
 398 656 l 1,11,-1
 486 656 l 1,12,-1
 307 335 l 1,13,-1
 498 0 l 1,14,-1
 406 0 l 1,15,-1
 310 177 l 2,16,17
 297 201 297 201 283.5 226.5 c 128,-1,18
 270 252 270 252 254 282 c 1,19,-1
 250 282 l 1,20,21
 236 252 236 252 223 226.5 c 128,-1,22
 210 201 210 201 198 177 c 2,23,-1
 103 0 l 1,24,-1
 15 0 l 1,25,-1
 206 339 l 1,0,-1
EndSplineSet
EndChar

StartChar: uniA4EC
Encoding: 42220 42220 28
Width: 476
Flags: W
LayerCount: 2
Fore
SplineSet
196 254 m 1,0,-1
 -1 656 l 1,1,-1
 88 656 l 1,2,-1
 173 471 l 2,3,4
 189 435 189 435 204 400 c 128,-1,5
 219 365 219 365 236 328 c 1,6,-1
 240 328 l 1,7,8
 257 365 257 365 274 400 c 128,-1,9
 291 435 291 435 306 471 c 1,10,-1
 390 656 l 1,11,-1
 477 656 l 1,12,-1
 280 254 l 1,13,-1
 280 0 l 1,14,-1
 196 0 l 1,15,-1
 196 254 l 1,0,-1
EndSplineSet
EndChar

StartChar: uniA4ED
Encoding: 42221 42221 29
Width: 588
Flags: W
LayerCount: 2
Fore
SplineSet
498 0 m 1,0,-1
 303 0 l 2,1,2
 253 0 253 0 211.5 9 c 128,-1,3
 170 18 170 18 140.5 37 c 128,-1,4
 111 56 111 56 94.5 86.5 c 128,-1,5
 78 117 78 117 78 160 c 0,6,7
 78 209 78 209 106 248.5 c 128,-1,8
 134 288 134 288 192 303 c 1,9,-1
 192 307 l 1,10,11
 120 318 120 318 80 357 c 128,-1,12
 40 396 40 396 40 464 c 0,13,14
 40 512 40 512 58 548 c 128,-1,15
 76 584 76 584 109 608 c 128,-1,16
 142 632 142 632 188 644 c 128,-1,17
 234 656 234 656 289 656 c 2,18,-1
 498 656 l 1,19,-1
 498 0 l 1,0,-1
318 280 m 2,20,21
 233 280 233 280 196.5 251 c 128,-1,22
 160 222 160 222 160 167 c 0,23,24
 160 113 160 113 198.5 89.5 c 128,-1,25
 237 66 237 66 314 66 c 2,26,-1
 415 66 l 1,27,-1
 415 280 l 1,28,-1
 318 280 l 2,20,21
301 590 m 2,29,30
 216 590 216 590 169 558.5 c 128,-1,31
 122 527 122 527 122 460 c 0,32,33
 122 399 122 399 168 370.5 c 128,-1,34
 214 342 214 342 301 342 c 2,35,-1
 415 342 l 1,36,-1
 415 590 l 1,37,-1
 301 590 l 2,29,30
EndSplineSet
EndChar

StartChar: uniA4EE
Encoding: 42222 42222 30
Width: 544
Flags: W
LayerCount: 2
Fore
SplineSet
369 267 m 1,0,-1
 338 367 l 2,1,2
 320 422 320 422 304 476.5 c 128,-1,3
 288 531 288 531 272 588 c 1,4,-1
 268 588 l 1,5,6
 253 531 253 531 237 476.5 c 128,-1,7
 221 422 221 422 203 367 c 2,8,-1
 172 267 l 1,9,-1
 369 267 l 1,0,-1
390 200 m 1,10,-1
 151 200 l 1,11,-1
 88 0 l 1,12,-1
 3 0 l 1,13,-1
 225 656 l 1,14,-1
 319 656 l 1,15,-1
 541 0 l 1,16,-1
 452 0 l 1,17,-1
 390 200 l 1,10,-1
EndSplineSet
EndChar

StartChar: uniA4EF
Encoding: 42223 42223 31
Width: 544
Flags: W
LayerCount: 2
Fore
SplineSet
175 389 m 1,0,-1
 206 289 l 2,1,2
 224 234 224 234 240 179.5 c 128,-1,3
 256 125 256 125 272 68 c 1,4,-1
 276 68 l 1,5,6
 291 125 291 125 307 179.5 c 128,-1,7
 323 234 323 234 341 289 c 2,8,-1
 372 389 l 1,9,-1
 175 389 l 1,0,-1
154 456 m 1,10,-1
 393 456 l 1,11,-1
 456 656 l 1,12,-1
 541 656 l 1,13,-1
 319 0 l 1,14,-1
 225 0 l 1,15,-1
 3 656 l 1,16,-1
 92 656 l 1,17,-1
 154 456 l 1,10,-1
EndSplineSet
EndChar

StartChar: uniA4F0
Encoding: 42224 42224 32
Width: 527
Flags: W
LayerCount: 2
Fore
SplineSet
90 656 m 1,0,-1
 468 656 l 1,1,-1
 468 586 l 1,2,-1
 173 586 l 1,3,-1
 173 380 l 1,4,-1
 422 380 l 1,5,-1
 422 309 l 1,6,-1
 173 309 l 1,7,-1
 173 71 l 1,8,-1
 478 71 l 1,9,-1
 478 0 l 1,10,-1
 90 0 l 1,11,-1
 90 656 l 1,0,-1
EndSplineSet
EndChar

StartChar: uniA4F1
Encoding: 42225 42225 33
Width: 527
Flags: W
LayerCount: 2
Fore
SplineSet
437 0 m 1,0,-1
 59 0 l 1,1,-1
 59 70 l 1,2,-1
 354 70 l 1,3,-1
 354 276 l 1,4,-1
 105 276 l 1,5,-1
 105 347 l 1,6,-1
 354 347 l 1,7,-1
 354 585 l 1,8,-1
 49 585 l 1,9,-1
 49 656 l 1,10,-1
 437 656 l 1,11,-1
 437 0 l 1,0,-1
EndSplineSet
EndChar

StartChar: uniA4F2
Encoding: 42226 42226 34
Width: 263
Flags: W
LayerCount: 2
Fore
SplineSet
90 656 m 1,0,-1
 173 656 l 1,1,-1
 173 0 l 1,2,-1
 90 0 l 1,3,-1
 90 656 l 1,0,-1
EndSplineSet
EndChar

StartChar: uniA4F3
Encoding: 42227 42227 35
Width: 664
Flags: W
LayerCount: 2
Fore
SplineSet
332 -12 m 128,-1,1
 270 -12 270 -12 218.5 12 c 128,-1,2
 167 36 167 36 130 80.5 c 128,-1,3
 93 125 93 125 72.5 188.5 c 128,-1,4
 52 252 52 252 52 331 c 128,-1,5
 52 410 52 410 72.5 472.5 c 128,-1,6
 93 535 93 535 130 578.5 c 128,-1,7
 167 622 167 622 218.5 645 c 128,-1,8
 270 668 270 668 332 668 c 128,-1,9
 394 668 394 668 445.5 644.5 c 128,-1,10
 497 621 497 621 534.5 577.5 c 128,-1,11
 572 534 572 534 592.5 471.5 c 128,-1,12
 613 409 613 409 613 331 c 0,13,14
 613 252 613 252 592.5 188.5 c 128,-1,15
 572 125 572 125 534.5 80.5 c 128,-1,16
 497 36 497 36 445.5 12 c 128,-1,0
 394 -12 394 -12 332 -12 c 128,-1,1
332 61 m 128,-1,18
 376 61 376 61 411.5 80 c 128,-1,19
 447 99 447 99 472.5 134.5 c 128,-1,20
 498 170 498 170 512 219.5 c 128,-1,21
 526 269 526 269 526 331 c 0,22,23
 526 392 526 392 512 441 c 128,-1,24
 498 490 498 490 472.5 524 c 128,-1,25
 447 558 447 558 411.5 576.5 c 128,-1,26
 376 595 376 595 332 595 c 128,-1,27
 288 595 288 595 252.5 576.5 c 128,-1,28
 217 558 217 558 191.5 524 c 128,-1,29
 166 490 166 490 152 441 c 128,-1,30
 138 392 138 392 138 331 c 0,31,32
 138 269 138 269 152 219.5 c 128,-1,33
 166 170 166 170 191.5 134.5 c 128,-1,34
 217 99 217 99 252.5 80 c 128,-1,17
 288 61 288 61 332 61 c 128,-1,18
EndSplineSet
EndChar

StartChar: uniA4F4
Encoding: 42228 42228 36
Width: 645
Flags: W
LayerCount: 2
Fore
SplineSet
87 656 m 1,0,-1
 170 656 l 1,1,-1
 170 269 l 2,2,3
 170 210 170 210 182 170 c 128,-1,4
 194 130 194 130 214.5 106 c 128,-1,5
 235 82 235 82 263 71.5 c 128,-1,6
 291 61 291 61 323 61 c 0,7,8
 356 61 356 61 384 71.5 c 128,-1,9
 412 82 412 82 433 106 c 128,-1,10
 454 130 454 130 466 170 c 128,-1,11
 478 210 478 210 478 269 c 2,12,-1
 478 656 l 1,13,-1
 558 656 l 1,14,-1
 558 271 l 2,15,16
 558 192 558 192 540 138 c 128,-1,17
 522 84 522 84 490.5 50.5 c 128,-1,18
 459 17 459 17 416 2.5 c 128,-1,19
 373 -12 373 -12 323 -12 c 128,-1,20
 273 -12 273 -12 229.5 2.5 c 128,-1,21
 186 17 186 17 154.5 50.5 c 128,-1,22
 123 84 123 84 105 138 c 128,-1,23
 87 192 87 192 87 271 c 2,24,-1
 87 656 l 1,0,-1
EndSplineSet
EndChar

StartChar: uniA4F5
Encoding: 42229 42229 37
Width: 645
Flags: W
LayerCount: 2
Fore
SplineSet
558 -12 m 1,0,-1
 475 -12 l 1,1,-1
 475 375 l 2,2,3
 475 434 475 434 463 474 c 128,-1,4
 451 514 451 514 430.5 538 c 128,-1,5
 410 562 410 562 382 572.5 c 128,-1,6
 354 583 354 583 322 583 c 0,7,8
 289 583 289 583 261 572.5 c 128,-1,9
 233 562 233 562 212 538 c 128,-1,10
 191 514 191 514 179 474 c 128,-1,11
 167 434 167 434 167 375 c 2,12,-1
 167 -12 l 1,13,-1
 87 -12 l 1,14,-1
 87 373 l 2,15,16
 87 452 87 452 105 506 c 128,-1,17
 123 560 123 560 154.5 593.5 c 128,-1,18
 186 627 186 627 229 641.5 c 128,-1,19
 272 656 272 656 322 656 c 128,-1,20
 372 656 372 656 415.5 641.5 c 128,-1,21
 459 627 459 627 490.5 593.5 c 128,-1,22
 522 560 522 560 540 506 c 128,-1,23
 558 452 558 452 558 373 c 2,24,-1
 558 -12 l 1,0,-1
EndSplineSet
EndChar

StartChar: uniA4F6
Encoding: 42230 42230 38
Width: 486
Flags: W
LayerCount: 2
Fore
SplineSet
396 0 m 1,0,-1
 313 0 l 1,1,-1
 313 585 l 1,2,-1
 26 585 l 1,3,-1
 26 656 l 1,4,-1
 396 656 l 1,5,-1
 396 0 l 1,0,-1
EndSplineSet
EndChar

StartChar: uniA4F7
Encoding: 42231 42231 39
Width: 615
Flags: W
LayerCount: 2
Fore
SplineSet
525 0 m 1,0,-1
 361 0 l 2,1,2
 209 0 209 0 130 84 c 128,-1,3
 51 168 51 168 51 325 c 0,4,5
 51 403 51 403 71 464.5 c 128,-1,6
 91 526 91 526 130 568.5 c 128,-1,7
 169 611 169 611 226 633.5 c 128,-1,8
 283 656 283 656 357 656 c 2,9,-1
 525 656 l 1,10,-1
 525 0 l 1,0,-1
367 588 m 2,11,12
 252 588 252 588 194.5 519 c 128,-1,13
 137 450 137 450 137 325 c 128,-1,14
 137 200 137 200 194.5 134 c 128,-1,15
 252 68 252 68 367 68 c 2,16,-1
 442 68 l 1,17,-1
 442 588 l 1,18,-1
 367 588 l 2,11,12
EndSplineSet
EndChar

StartChar: uniA4F8
Encoding: 42232 42232 40
Width: 249
Flags: W
LayerCount: 2
Fore
SplineSet
65 50 m 0,0,1
 65 79 65 79 82.5 96.5 c 128,-1,2
 100 114 100 114 125 114 c 0,3,4
 149 114 149 114 166.5 96.5 c 128,-1,5
 184 79 184 79 184 50 c 0,6,7
 184 23 184 23 166.5 5.5 c 128,-1,8
 149 -12 149 -12 125 -12 c 0,9,10
 100 -12 100 -12 82.5 5.5 c 128,-1,11
 65 23 65 23 65 50 c 0,0,1
EndSplineSet
EndChar

StartChar: uniA4F9
Encoding: 42233 42233 41
Width: 249
Flags: W
LayerCount: 2
Fore
SplineSet
47 -122 m 1,0,1
 89 -103 89 -103 113 -72 c 128,-1,2
 137 -41 137 -41 137 0 c 1,3,4
 134 -1 134 -1 127 -1 c 0,5,6
 103 -1 103 -1 85.5 13.5 c 128,-1,7
 68 28 68 28 68 56 c 0,8,9
 68 83 68 83 86 98.5 c 128,-1,10
 104 114 104 114 129 114 c 0,11,12
 161 114 161 114 179.5 88 c 128,-1,13
 198 62 198 62 198 17 c 0,14,15
 198 -48 198 -48 163 -96 c 128,-1,16
 128 -144 128 -144 67 -170 c 1,17,-1
 47 -122 l 1,0,1
EndSplineSet
EndChar

StartChar: uniA4FA
Encoding: 42234 42234 42
Width: 434
Flags: W
LayerCount: 2
Fore
SplineSet
250 50 m 0,0,1
 250 79 250 79 267.5 96.5 c 128,-1,2
 285 114 285 114 310 114 c 0,3,4
 334 114 334 114 351.5 96.5 c 128,-1,5
 369 79 369 79 369 50 c 0,6,7
 369 23 369 23 351.5 5.5 c 128,-1,8
 334 -12 334 -12 310 -12 c 0,9,10
 285 -12 285 -12 267.5 5.5 c 128,-1,11
 250 23 250 23 250 50 c 0,0,1
65 50 m 0,12,13
 65 79 65 79 82.5 96.5 c 128,-1,14
 100 114 100 114 125 114 c 0,15,16
 149 114 149 114 166.5 96.5 c 128,-1,17
 184 79 184 79 184 50 c 0,18,19
 184 23 184 23 166.5 5.5 c 128,-1,20
 149 -12 149 -12 125 -12 c 0,21,22
 100 -12 100 -12 82.5 5.5 c 128,-1,23
 65 23 65 23 65 50 c 0,12,13
EndSplineSet
EndChar

StartChar: uniA4FB
Encoding: 42235 42235 43
Width: 434
Flags: W
LayerCount: 2
Fore
SplineSet
228 -122 m 1,0,1
 270 -103 270 -103 294 -72 c 128,-1,2
 318 -41 318 -41 318 0 c 1,3,4
 315 -1 315 -1 308 -1 c 0,5,6
 284 -1 284 -1 266.5 13.5 c 128,-1,7
 249 28 249 28 249 56 c 0,8,9
 249 83 249 83 267 98.5 c 128,-1,10
 285 114 285 114 310 114 c 0,11,12
 342 114 342 114 360.5 88 c 128,-1,13
 379 62 379 62 379 17 c 0,14,15
 379 -48 379 -48 344 -96 c 128,-1,16
 309 -144 309 -144 248 -170 c 1,17,-1
 228 -122 l 1,0,1
65 50 m 0,18,19
 65 79 65 79 82.5 96.5 c 128,-1,20
 100 114 100 114 125 114 c 0,21,22
 149 114 149 114 166.5 96.5 c 128,-1,23
 184 79 184 79 184 50 c 0,24,25
 184 23 184 23 166.5 5.5 c 128,-1,26
 149 -12 149 -12 125 -12 c 0,27,28
 100 -12 100 -12 82.5 5.5 c 128,-1,29
 65 23 65 23 65 50 c 0,18,19
EndSplineSet
EndChar

StartChar: uniA4FC
Encoding: 42236 42236 44
Width: 249
Flags: W
LayerCount: 2
Fore
SplineSet
65 411 m 0,0,1
 65 440 65 440 82.5 457.5 c 128,-1,2
 100 475 100 475 125 475 c 0,3,4
 149 475 149 475 166.5 457.5 c 128,-1,5
 184 440 184 440 184 411 c 0,6,7
 184 384 184 384 166.5 366.5 c 128,-1,8
 149 349 149 349 125 349 c 0,9,10
 100 349 100 349 82.5 366.5 c 128,-1,11
 65 384 65 384 65 411 c 0,0,1
47 -122 m 1,12,13
 89 -103 89 -103 113 -72 c 128,-1,14
 137 -41 137 -41 137 0 c 1,15,16
 134 -1 134 -1 127 -1 c 0,17,18
 103 -1 103 -1 85.5 13.5 c 128,-1,19
 68 28 68 28 68 56 c 0,20,21
 68 83 68 83 86 98.5 c 128,-1,22
 104 114 104 114 129 114 c 0,23,24
 161 114 161 114 179.5 88 c 128,-1,25
 198 62 198 62 198 17 c 0,26,27
 198 -48 198 -48 163 -96 c 128,-1,28
 128 -144 128 -144 67 -170 c 1,29,-1
 47 -122 l 1,12,13
EndSplineSet
EndChar

StartChar: uniA4FD
Encoding: 42237 42237 45
Width: 249
Flags: W
LayerCount: 2
Fore
SplineSet
65 411 m 0,0,1
 65 440 65 440 82.5 457.5 c 128,-1,2
 100 475 100 475 125 475 c 0,3,4
 149 475 149 475 166.5 457.5 c 128,-1,5
 184 440 184 440 184 411 c 0,6,7
 184 384 184 384 166.5 366.5 c 128,-1,8
 149 349 149 349 125 349 c 0,9,10
 100 349 100 349 82.5 366.5 c 128,-1,11
 65 384 65 384 65 411 c 0,0,1
65 50 m 0,12,13
 65 79 65 79 82.5 96.5 c 128,-1,14
 100 114 100 114 125 114 c 0,15,16
 149 114 149 114 166.5 96.5 c 128,-1,17
 184 79 184 79 184 50 c 0,18,19
 184 23 184 23 166.5 5.5 c 128,-1,20
 149 -12 149 -12 125 -12 c 0,21,22
 100 -12 100 -12 82.5 5.5 c 128,-1,23
 65 23 65 23 65 50 c 0,12,13
EndSplineSet
EndChar

StartChar: uniA4FE
Encoding: 42238 42238 46
Width: 311
Flags: W
LayerCount: 2
Fore
SplineSet
41 282 m 1,0,-1
 271 282 l 1,1,-1
 271 219 l 1,2,-1
 41 219 l 1,3,-1
 41 282 l 1,0,-1
163 50 m 0,4,5
 163 79 163 79 180.5 96.5 c 128,-1,6
 198 114 198 114 223 114 c 0,7,8
 247 114 247 114 264.5 96.5 c 128,-1,9
 282 79 282 79 282 50 c 0,10,11
 282 23 282 23 264.5 5.5 c 128,-1,12
 247 -12 247 -12 223 -12 c 0,13,14
 198 -12 198 -12 180.5 5.5 c 128,-1,15
 163 23 163 23 163 50 c 0,4,5
EndSplineSet
EndChar

StartChar: uniA4FF
Encoding: 42239 42239 47
Width: 311
Flags: W
LayerCount: 2
Fore
SplineSet
41 142 m 1,0,-1
 271 142 l 1,1,-1
 271 79 l 1,2,-1
 41 79 l 1,3,-1
 41 142 l 1,0,-1
41 282 m 1,4,-1
 271 282 l 1,5,-1
 271 219 l 1,6,-1
 41 219 l 1,7,-1
 41 282 l 1,4,-1
EndSplineSet
EndChar
